0
SECTION
2
HEADER
9
$INSUNITS
70
4
9
$ACADVER
1
AC1014
9
$HANDSEED
5
FFFF
0
ENDSEC
0
SECTION
2
TABLES
0
TABLE
2
VPORT
5
8
100
AcDbSymbolTable
0
ENDTAB
0
TABLE
2
LTYPE
5
5
100
AcDbSymbolTable
0
LTYPE
5
14
100
AcDbSymbolTableRecord
100
AcDbLinetypeTableRecord
2
BYBLOCK
70
0
0
LTYPE
5
15
100
AcDbSymbolTableRecord
100
AcDbLinetypeTableRecord
2
BYLAYER
70
0
0
LTYPE
5
16
100
AcDbSymbolTableRecord
100
AcDbLinetypeTableRecord
2
DASHED
70
0
3
Dashed __ __ __ __ __ __ __ __ __ __ __ __ __ _
72
65
73
2
40
0.75
49
0.5
74
0
49
-0.25
74
0
0
ENDTAB
0
TABLE
2
LAYER
5
2
100
AcDbSymbolTable
70
2
0
LAYER
5
50
100
AcDbSymbolTableRecord
100
AcDbLayerTableRecord
2
0
70
0
62
7
6
CONTINUOUS
0
ENDTAB
0
TABLE
2
STYLE
5
3
100
AcDbSymbolTable
70
1
0
STYLE
5
11
100
AcDbSymbolTableRecord
100
AcDbTextStyleTableRecord
2
STANDARD
70
0
0
ENDTAB
0
TABLE
2
VIEW
5
6
100
AcDbSymbolTable
70
0
0
ENDTAB
0
TABLE
2
UCS
5
7
100
AcDbSymbolTable
70
0
0
ENDTAB
0
TABLE
2
APPID
5
9
100
AcDbSymbolTable
70
2
0
APPID
5
12
100
AcDbSymbolTableRecord
100
AcDbRegAppTableRecord
2
ACAD
70
0
0
ENDTAB
0
TABLE
2
DIMSTYLE
5
A
100
AcDbSymbolTable
70
1
0
ENDTAB
0
TABLE
2
BLOCK_RECORD
5
1
100
AcDbSymbolTable
70
1
0
BLOCK_RECORD
5
1F
100
AcDbSymbolTableRecord
100
AcDbBlockTableRecord
2
*MODEL_SPACE
0
BLOCK_RECORD
5
1B
100
AcDbSymbolTableRecord
100
AcDbBlockTableRecord
2
*PAPER_SPACE
0
ENDTAB
0
ENDSEC
0
SECTION
2
BLOCKS
0
BLOCK
5
20
100
AcDbEntity
100
AcDbBlockBegin
2
*MODEL_SPACE
0
ENDBLK
5
21
100
AcDbEntity
100
AcDbBlockEnd
0
BLOCK
5
1C
100
AcDbEntity
100
AcDbBlockBegin
2
*PAPER_SPACE
0
ENDBLK
5
1D
100
AcDbEntity
100
AcDbBlockEnd
0
ENDSEC
0
SECTION
2
ENTITIES
0
POINT
5
100
100
AcDbEntity
8
0
100
AcDbPoint
10
0
20
0
30
0
0
LINE
5
101
100
AcDbEntity
8
0
100
AcDbLine
10
0
20
0
30
0
11
0
21
90
31
0
0
ARC
5
102
100
AcDbEntity
8
0
100
AcDbCircle
10
10
20
90
30
0
40
10.000000000000014
210
0
220
0
230
1
100
AcDbArc
50
109.99999999999984
51
180
0
LINE
5
103
100
AcDbEntity
8
0
100
AcDbLine
10
6.5797985667433352
20
99.39692620785911
30
0
11
100.54906064533415
21
133.59894054042599
31
0
0
ARC
5
104
100
AcDbEntity
8
0
100
AcDbCircle
10
103.96926207859084
20
124.20201433256692
30
0
40
9.9999999999999556
210
0
220
0
230
1
100
AcDbArc
50
-10.000000000000039
51
110.00000000000006
0
LINE
5
105
100
AcDbEntity
8
0
100
AcDbLine
10
113.81733960871289
20
122.46553255589761
30
0
11
105.13493072536636
21
73.225144905287195
31
0
0
LINE
5
106
100
AcDbEntity
8
0
100
AcDbLine
10
105.13493072536635
20
73.225144905287252
30
0
11
155.13493072536636
21
73.225144905287252
31
0
0
LINE
5
107
100
AcDbEntity
8
0
100
AcDbLine
10
30.401168884592593
20
-47.912625100665245
30
0
11
50.401168884592593
21
-47.912625100665245
31
0
6
DASHED
0
LINE
5
108
100
AcDbEntity
8
0
100
AcDbLine
10
50.401168884592593
20
-47.912625100665245
30
0
11
50.401168884592593
21
-67.912625100665252
31
0
6
DASHED
0
LINE
5
109
100
AcDbEntity
8
0
100
AcDbLine
10
50.401168884592593
20
-67.912625100665252
30
0
11
30.401168884592593
21
-67.912625100665252
31
0
6
DASHED
0
LINE
5
110
100
AcDbEntity
8
0
100
AcDbLine
10
30.401168884592593
20
-67.912625100665252
30
0
11
30.401168884592593
21
-47.912625100665245
31
0
6
DASHED
0
ARC
5
111
100
AcDbEntity
8
0
100
AcDbCircle
10
155.13493072536636
20
3.2251449052872694
30
0
40
69.999999999999659
210
-0
220
0
230
1
100
AcDbArc
50
-18.666043134276162
51
90
0
LINE
5
112
100
AcDbEntity
8
0
100
AcDbLine
10
221.45293951690297
20
-19.178464400483566
30
0
11
189.79009662187002
21
-112.90517891415487
31
0
0
LINE
5
113
100
AcDbEntity
8
0
100
AcDbLine
10
189.79009662187002
20
-112.90517891415487
30
0
11
125.29075422793811
21
-103.77252866368651
31
0
0
SPLINE
5
114
100
AcDbEntity
8
0
100
AcDbSpline
70
4
71
5
72
31
73
25
74
0
42
0.000000001
43
0.0000000001
44
0.0000000001
40
0
40
0
40
0
40
0
40
0
40
0
40
0.050000000000000003
40
0.10000000000000001
40
0.15000000000000002
40
0.20000000000000001
40
0.25
40
0.29999999999999999
40
0.34999999999999998
40
0.39999999999999997
40
0.44999999999999996
40
0.49999999999999994
40
0.54999999999999993
40
0.59999999999999998
40
0.65000000000000002
40
0.70000000000000007
40
0.75000000000000011
40
0.80000000000000016
40
0.8500000000000002
40
0.90000000000000024
40
0.95000000000000029
40
1
40
1
40
1
40
1
40
1
40
1
41
1
41
1
41
1
41
1
41
1
41
1
41
1
41
1
41
1
41
1
41
1
41
1
41
1
41
1
41
1
41
1
41
1
41
1
41
1
41
1
41
1
41
1
41
1
41
1
41
1
10
125.29075422793811
20
-103.77252866368651
30
0
10
124.46518648596823
20
-107.20291775796214
30
0
10
122.57383293439383
20
-113.79568000784202
30
0
10
119.01616372510546
20
-122.88077816742933
30
0
10
112.82531072865541
20
-133.37956804464417
30
0
10
102.7086541488365
20
-143.77595091698342
30
0
10
90.37522163896287
20
-151.40469403282674
30
0
10
76.201658742291855
20
-156.23825928199449
30
0
10
60.857907391776138
20
-158.28089014008827
30
0
10
45.424187587706513
20
-157.59251562257217
30
0
10
31.416456874282733
20
-154.30822328288579
30
0
10
20.387127509182879
20
-148.62865224615928
30
0
10
13.560173111271929
20
-140.81579265780212
30
0
10
11.49326354649264
20
-131.19397398924951
30
0
10
13.602358089948474
20
-120.14367646861285
30
0
10
18.106988036365916
20
-108.129947151823
30
0
10
22.691955557634689
20
-95.779665074260862
30
0
10
25.02338633200295
20
-83.962457106117427
30
0
10
23.255835206939302
20
-73.84961819805946
30
0
10
16.707952200135498
20
-67.048082284977625
30
0
10
5.8123804610156746
20
-65.445732478970513
30
0
10
-5.6480346282941358
20
-69.751344632024058
30
0
10
-15.355950041954978
20
-76.735750702815807
30
0
10
-22.258431571604994
20
-83.137555576907744
30
0
10
-25.817278447399605
20
-86.774855094712748
30
0
0
ARC
5
115
100
AcDbEntity
8
0
100
AcDbCircle
10
-38.634122781525427
20
-74.234456320081293
30
0
40
17.931344068752658
210
0
220
0
230
1
100
AcDbArc
50
140.13334396518769
51
315.62461586549489
0
LINE
5
116
100
AcDbEntity
8
0
100
AcDbLine
10
0
20
0
30
0
11
-52.397116504540371
21
-62.740409865840626
31
0
0
ENDSEC
0
SECTION
2
OBJECTS
0
DICTIONARY
5
C
100
AcDbDictionary
3
ACAD_GROUP
350
D
3
ACAD_MLINESTYLE
350
17
0
DICTIONARY
5
D
100
AcDbDictionary
0
DICTIONARY
5
1A
330
C
100
AcDbDictionary
0
DICTIONARY
5
17
100
AcDbDictionary
0
ENDSEC
0
EOF
